<svg xmlns="http://www.w3.org/2000/svg" xmlns:xlink="http://www.w3.org/1999/xlink" viewBox="0 0 28 28"><defs><style>.cls-1{fill:url(#未命名的渐变_3);}.cls-2{fill:#fff;}</style><linearGradient id="未命名的渐变_3" x1="0.11" y1="-1400.86" x2="32.11" y2="-1436.67" gradientTransform="matrix(1, 0, 0, -1, 0, -1405.7)" gradientUnits="userSpaceOnUse"><stop offset="0" stop-color="#517fa6"/><stop offset="1" stop-color="#426699"/></linearGradient></defs><g id="图层_2" data-name="图层 2"><g id="图层_2-2" data-name="图层 2"><path class="cls-1" d="M14.85,11.66v0l0,0Z"/><path class="cls-2" d="M14,1.5A12.5,12.5,0,1,1,1.5,14,12.52,12.52,0,0,1,14,1.5M14,0A14,14,0,1,0,28,14,14,14,0,0,0,14,0Z"/><polygon class="cls-2" points="10.14 19.45 7.12 19.45 7.12 10.34 10.14 10.34 10.14 19.45 10.14 19.45"/><path class="cls-2" d="M8.63,9.09h0A1.57,1.57,0,1,1,8.65,6a1.58,1.58,0,1,1,0,3.14Z"/><path class="cls-2" d="M21.06,19.45H18V14.57c0-1.22-.44-2.06-1.54-2.06A1.66,1.66,0,0,0,15,13.62a2.11,2.11,0,0,0-.1.74v5.08h-3s0-8.25,0-9.1h3v1.29a3,3,0,0,1,2.73-1.51c2,0,3.48,1.31,3.48,4.1v5.23Z"/></g></g></svg>