<svg xmlns="http://www.w3.org/2000/svg" xmlns:xlink="http://www.w3.org/1999/xlink" viewBox="0 0 126.71 47.34"><defs><style>.cls-1{opacity:0.25;fill:url(#未命名的渐变_2);}.cls-1,.cls-2{isolation:isolate;}.cls-2,.cls-3{fill:#dd4242;}.cls-2{opacity:0.55;}.cls-4{fill:#fff;}</style><radialGradient id="未命名的渐变_2" cx="-88.72" cy="2659.93" r="0.5" gradientTransform="matrix(12, 0, 0, -12, 1139.47, 31925.1)" gradientUnits="userSpaceOnUse"><stop offset="0" stop-color="#dd4242"/><stop offset="0.67" stop-color="#dd4242" stop-opacity="0.86"/><stop offset="1" stop-color="#dd4242" stop-opacity="0"/></radialGradient></defs><g id="图层_2" data-name="图层 2"><g id="图层_2-2" data-name="图层 2"><circle id="椭圆_2" data-name="椭圆 2" class="cls-1" cx="74.86" cy="6" r="6"/><circle id="椭圆_3" data-name="椭圆 3" class="cls-2" cx="74.86" cy="6" r="3.91"/><path id="路径_19" data-name="路径 19" class="cls-3" d="M72,34V16.61a2.87,2.87,0,0,1,2.87-2.86h0a2.86,2.86,0,0,1,2.86,2.86h0V34a2.86,2.86,0,0,1-2.86,2.86h0A2.87,2.87,0,0,1,72,34Zm5.14,0V16.61a2.27,2.27,0,0,0-4.54,0V34a2.27,2.27,0,0,0,4.54,0Z"/><path id="路径_16" data-name="路径 16" class="cls-4" d="M20.75,36.89l-2-5.66H8L6,36.89H0L10.35,8h6.1L26.8,36.89ZM17.06,26.34l-3.67-10.5-3.7,10.5Z"/><path id="路径_17" data-name="路径 17" class="cls-4" d="M29.66,47.34V13.75h5.73v2.3a10.4,10.4,0,0,1,7.06-2.66c6.33,0,10.92,5,10.92,11.83s-4.59,12-10.92,12a10.52,10.52,0,0,1-7.06-2.69V47.34Zm11.8-28.82c-3,0-6.07,2.33-6.07,6.78s3,6.82,6.07,6.82,6.1-2.37,6.1-6.9S44.4,18.52,41.46,18.52Z"/><path id="路径_18" data-name="路径 18" class="cls-4" d="M56.69,36.89V13.75h5.73v2a7.88,7.88,0,0,1,6-2.36H69v5.88H67.25c-2.51,0-4.83.67-4.83,5.47V36.89Z"/><path id="路径_20" data-name="路径 20" class="cls-4" d="M95.51,36.89l-7.26-8.44v8.44H82.52V6.21h5.73V22.3l7.1-8.56h7.92L92.6,25.34l10.68,11.55Z"/><path id="路径_21" data-name="路径 21" class="cls-4" d="M114.72,37.25c-6.83,0-11.59-4.91-11.59-11.95a11.79,11.79,0,1,1,11.63,12Zm.12-18.73c-3.59,0-5.91,2.66-5.91,6.78s2.28,6.82,5.79,6.82c3.06,0,6.14-2.11,6.14-6.82,0-3.38-1.86-6.78-6-6.78Z"/><circle id="椭圆_4" data-name="椭圆 4" class="cls-3" cx="74.86" cy="6" r="1.95"/><path class="cls-3" d="M108.93,25.3c0,4.14,2.27,6.82,5.79,6.82,3.06,0,6.14-2.11,6.14-6.82V25H108.94C108.94,25.13,108.93,25.21,108.93,25.3Z"/></g></g></svg>