<svg xmlns="http://www.w3.org/2000/svg" viewBox="0 0 28 28"><defs><style>.cls-1{fill:#fff;}</style></defs><g id="图层_2" data-name="图层 2"><g id="图层_2-2" data-name="图层 2"><path class="cls-1" d="M15.94,8.53A2.83,2.83,0,0,0,14,11.38l0,.48-.49-.06A7.89,7.89,0,0,1,8.92,9.51l-.64-.64-.17.47a2.87,2.87,0,0,0,.61,2.93c.39.41.3.47-.37.23a1.16,1.16,0,0,0-.46-.11,3.38,3.38,0,0,0,.35,1.32A3.12,3.12,0,0,0,9.58,15l.48.23H9.49c-.55,0-.57,0-.51.21a2.93,2.93,0,0,0,1.83,1.62l.61.21-.53.32a5.54,5.54,0,0,1-2.62.73,2.84,2.84,0,0,0-.8.08,7.47,7.47,0,0,0,1.88.87,8.3,8.3,0,0,0,6.42-.73A8.65,8.65,0,0,0,19,14.69a10.25,10.25,0,0,0,.66-3c0-.46,0-.52.58-1.06A6.92,6.92,0,0,0,21,9.91c.1-.19.09-.19-.41,0-.83.29-.95.25-.54-.19a2.83,2.83,0,0,0,.67-1.06s-.15,0-.31.11a5.46,5.46,0,0,1-.87.34L19,9.25l-.48-.32a4.26,4.26,0,0,0-.83-.44A3.33,3.33,0,0,0,15.94,8.53Z"/><path class="cls-1" d="M14,1.5A12.5,12.5,0,1,1,1.5,14,12.52,12.52,0,0,1,14,1.5M14,0A14,14,0,1,0,28,14,14,14,0,0,0,14,0Z"/></g></g></svg>