<svg xmlns="http://www.w3.org/2000/svg" viewBox="0 0 28 28"><defs><style>.cls-1{fill:#fff;}</style></defs><g id="图层_2" data-name="图层 2"><g id="图层_2-2" data-name="图层 2"><path class="cls-1" d="M22.57,14.69c0,1.48-.17,3-.17,3a4.13,4.13,0,0,1-.68,1.81,2.39,2.39,0,0,1-1.72.78c-2.4.18-6,.19-6,.19s-4.46,0-5.83-.18a2.84,2.84,0,0,1-1.89-.79,4.13,4.13,0,0,1-.68-1.81s-.17-1.48-.17-3V13.3a29.4,29.4,0,0,1,.17-3,4.2,4.2,0,0,1,.68-1.82A2.37,2.37,0,0,1,8,7.76c2.4-.19,6-.19,6-.19h0s3.6,0,6,.19a2.37,2.37,0,0,1,1.72.77,4.2,4.2,0,0,1,.68,1.82,29.4,29.4,0,0,1,.17,3v1.39ZM11.86,17.21,17.22,14l-5.36-3.21Z"/><path class="cls-1" d="M14,1.5A12.5,12.5,0,1,1,1.5,14,12.52,12.52,0,0,1,14,1.5M14,0A14,14,0,1,0,28,14,14,14,0,0,0,14,0Z"/></g></g></svg>